<svg width="212" height="27" viewBox="0 0 212 27" fill="none" xmlns="http://www.w3.org/2000/svg">
    <g transform="matrix(1.04067,0,0,1.04067,-1.17691,3.09235)">
        <path d="M8.259,22.318C6.879,22.318 5.669,22.053 4.629,21.523C3.589,20.993 2.784,20.223 2.214,19.213C1.644,18.203 1.359,16.968 1.359,15.508L5.529,15.508C5.529,16.148 5.629,16.698 5.829,17.158C6.029,17.618 6.319,17.968 6.699,18.208C7.079,18.448 7.559,18.568 8.139,18.568C8.719,18.568 9.189,18.453 9.549,18.223C9.909,17.993 10.174,17.668 10.344,17.248C10.514,16.828 10.599,16.328 10.599,15.748L10.599,0.958L14.799,0.958L14.799,15.748C14.799,17.868 14.209,19.493 13.029,20.623C11.849,21.753 10.259,22.318 8.259,22.318Z" style="fill:white;fill-rule:nonzero;"/>
        <path d="M24.399,22.318C23.159,22.318 22.104,22.058 21.234,21.538C20.364,21.018 19.704,20.253 19.254,19.243C18.804,18.233 18.579,16.988 18.579,15.508L18.579,6.928L22.749,6.928L22.749,15.118C22.749,16.298 22.994,17.203 23.484,17.833C23.974,18.463 24.749,18.778 25.809,18.778C26.469,18.778 27.059,18.623 27.579,18.313C28.099,18.003 28.504,17.558 28.794,16.978C29.084,16.398 29.229,15.688 29.229,14.848L29.229,6.928L33.429,6.928L33.429,21.958L29.739,21.958L29.439,19.498C28.979,20.358 28.319,21.043 27.459,21.553C26.599,22.063 25.579,22.318 24.399,22.318Z" style="fill:white;fill-rule:nonzero;"/>
        <rect x="37.359" y="0.358" width="4.2" height="21.6" style="fill:white;"/>
        <path d="M45.549,21.958L45.549,6.928L49.749,6.928L49.749,21.958L45.549,21.958ZM47.679,4.948C46.919,4.948 46.299,4.723 45.819,4.273C45.339,3.823 45.099,3.268 45.099,2.608C45.099,1.928 45.339,1.368 45.819,0.928C46.299,0.488 46.919,0.268 47.679,0.268C48.439,0.268 49.059,0.488 49.539,0.928C50.019,1.368 50.259,1.928 50.259,2.608C50.259,3.268 50.019,3.823 49.539,4.273C49.059,4.723 48.439,4.948 47.679,4.948Z" style="fill:white;fill-rule:nonzero;"/>
        <path d="M58.869,22.318C57.609,22.318 56.569,22.113 55.749,21.703C54.929,21.293 54.319,20.748 53.919,20.068C53.519,19.388 53.319,18.628 53.319,17.788C53.319,16.888 53.554,16.088 54.024,15.388C54.494,14.688 55.204,14.138 56.154,13.738C57.104,13.338 58.309,13.138 59.769,13.138L63.489,13.138C63.489,12.438 63.394,11.853 63.204,11.383C63.014,10.913 62.714,10.563 62.304,10.333C61.894,10.103 61.349,9.988 60.669,9.988C59.929,9.988 59.294,10.148 58.764,10.468C58.234,10.788 57.909,11.278 57.789,11.938L53.739,11.938C53.839,10.858 54.194,9.918 54.804,9.118C55.414,8.318 56.229,7.693 57.249,7.243C58.269,6.793 59.419,6.568 60.699,6.568C62.119,6.568 63.354,6.808 64.404,7.288C65.454,7.768 66.264,8.458 66.834,9.358C67.404,10.258 67.689,11.368 67.689,12.688L67.689,21.958L64.149,21.958L63.669,19.678C63.469,20.078 63.214,20.433 62.904,20.743C62.594,21.053 62.239,21.328 61.839,21.568C61.439,21.808 60.994,21.993 60.504,22.123C60.014,22.253 59.469,22.318 58.869,22.318ZM59.889,19.078C60.409,19.078 60.864,18.993 61.254,18.823C61.644,18.653 61.984,18.413 62.274,18.103C62.564,17.793 62.794,17.433 62.964,17.023C63.134,16.613 63.249,16.178 63.309,15.718L63.309,15.688L60.249,15.688C59.689,15.688 59.219,15.763 58.839,15.913C58.459,16.063 58.184,16.268 58.014,16.528C57.844,16.788 57.759,17.088 57.759,17.428C57.759,17.788 57.849,18.093 58.029,18.343C58.209,18.593 58.459,18.778 58.779,18.898C59.099,19.018 59.469,19.078 59.889,19.078ZM57.249,5.638L57.009,2.818L63.759,-0.872L64.029,2.368L57.249,5.638Z" style="fill:white;fill-rule:nonzero;"/>
        <path d="M71.409,21.958L71.409,6.928L75.099,6.928L75.429,9.388C75.889,8.548 76.544,7.868 77.394,7.348C78.244,6.828 79.269,6.568 80.469,6.568C81.709,6.568 82.759,6.833 83.619,7.363C84.479,7.893 85.139,8.668 85.599,9.688C86.059,10.708 86.289,11.948 86.289,13.408L86.289,21.958L82.089,21.958L82.089,13.798C82.089,12.618 81.844,11.708 81.354,11.068C80.864,10.428 80.089,10.108 79.029,10.108C78.369,10.108 77.784,10.268 77.274,10.588C76.764,10.908 76.359,11.358 76.059,11.938C75.759,12.518 75.609,13.228 75.609,14.068L75.609,21.958L71.409,21.958Z" style="fill:white;fill-rule:nonzero;"/>
        <path d="M106.269,22.318C104.289,22.318 102.554,21.873 101.064,20.983C99.574,20.093 98.419,18.843 97.599,17.233C96.779,15.623 96.369,13.748 96.369,11.608C96.369,9.448 96.794,7.543 97.644,5.893C98.494,4.243 99.709,2.948 101.289,2.008C102.869,1.068 104.759,0.598 106.959,0.598C109.439,0.598 111.499,1.193 113.139,2.383C114.779,3.573 115.839,5.218 116.319,7.318L111.639,7.318C111.339,6.418 110.794,5.718 110.004,5.218C109.214,4.718 108.189,4.468 106.929,4.468C105.589,4.468 104.449,4.758 103.509,5.338C102.569,5.918 101.859,6.743 101.379,7.813C100.899,8.883 100.659,10.158 100.659,11.638C100.659,13.118 100.899,14.378 101.379,15.418C101.859,16.458 102.554,17.248 103.464,17.788C104.374,18.328 105.459,18.598 106.719,18.598C108.519,18.598 109.884,18.113 110.814,17.143C111.744,16.173 112.299,14.938 112.479,13.438L107.409,13.438L107.409,10.318L116.709,10.318L116.709,21.958L112.809,21.958L112.509,19.378C112.069,19.998 111.559,20.528 110.979,20.968C110.399,21.408 109.724,21.743 108.954,21.973C108.184,22.203 107.289,22.318 106.269,22.318Z" style="fill:white;fill-rule:nonzero;"/>
        <path d="M127.539,22.318C126.099,22.318 124.799,21.983 123.639,21.313C122.479,20.643 121.564,19.713 120.894,18.523C120.224,17.333 119.889,15.978 119.889,14.458C119.889,12.918 120.224,11.553 120.894,10.363C121.564,9.173 122.479,8.243 123.639,7.573C124.799,6.903 126.099,6.568 127.539,6.568C128.999,6.568 130.309,6.903 131.469,7.573C132.629,8.243 133.544,9.168 134.214,10.348C134.884,11.528 135.219,12.898 135.219,14.458C135.219,15.998 134.884,17.358 134.214,18.538C133.544,19.718 132.629,20.643 131.469,21.313C130.309,21.983 128.999,22.318 127.539,22.318ZM127.539,18.688C128.179,18.688 128.754,18.528 129.264,18.208C129.774,17.888 130.184,17.413 130.494,16.783C130.804,16.153 130.959,15.378 130.959,14.458C130.959,13.518 130.804,12.733 130.494,12.103C130.184,11.473 129.774,10.998 129.264,10.678C128.754,10.358 128.189,10.198 127.569,10.198C126.949,10.198 126.379,10.358 125.859,10.678C125.339,10.998 124.924,11.473 124.614,12.103C124.304,12.733 124.149,13.518 124.149,14.458C124.149,15.378 124.304,16.153 124.614,16.783C124.924,17.413 125.334,17.888 125.844,18.208C126.354,18.528 126.919,18.688 127.539,18.688ZM124.299,5.638L124.059,2.818L130.809,-0.872L131.079,2.368L124.299,5.638Z" style="fill:white;fill-rule:nonzero;"/>
        <path d="M138.669,21.958L138.669,6.928L142.359,6.928L142.719,8.938C143.199,8.218 143.834,7.643 144.624,7.213C145.414,6.783 146.329,6.568 147.369,6.568C148.109,6.568 148.784,6.668 149.394,6.868C150.004,7.068 150.539,7.358 150.999,7.738C151.459,8.118 151.849,8.588 152.169,9.148C152.729,8.348 153.464,7.718 154.374,7.258C155.284,6.798 156.269,6.568 157.329,6.568C158.649,6.568 159.754,6.833 160.644,7.363C161.534,7.893 162.209,8.668 162.669,9.688C163.129,10.708 163.359,11.948 163.359,13.408L163.359,21.958L159.189,21.958L159.189,13.798C159.189,12.618 158.954,11.708 158.484,11.068C158.014,10.428 157.299,10.108 156.339,10.108C155.699,10.108 155.134,10.268 154.644,10.588C154.154,10.908 153.774,11.358 153.504,11.938C153.234,12.518 153.099,13.228 153.099,14.068L153.099,21.958L148.929,21.958L148.929,13.798C148.929,12.618 148.699,11.708 148.239,11.068C147.779,10.428 147.039,10.108 146.019,10.108C145.419,10.108 144.879,10.268 144.399,10.588C143.919,10.908 143.544,11.358 143.274,11.938C143.004,12.518 142.869,13.228 142.869,14.068L142.869,21.958L138.669,21.958Z" style="fill:white;fill-rule:nonzero;"/>
        <path d="M174.399,22.318C172.859,22.318 171.504,21.993 170.334,21.343C169.164,20.693 168.249,19.788 167.589,18.628C166.929,17.468 166.599,16.128 166.599,14.608C166.599,13.048 166.924,11.663 167.574,10.453C168.224,9.243 169.134,8.293 170.304,7.603C171.474,6.913 172.839,6.568 174.399,6.568C175.899,6.568 177.214,6.893 178.344,7.543C179.474,8.193 180.354,9.078 180.984,10.198C181.614,11.318 181.929,12.598 181.929,14.038L181.929,14.713C181.929,14.963 181.909,15.218 181.869,15.478L169.569,15.478L169.569,12.958L177.669,12.958C177.629,12.058 177.304,11.333 176.694,10.783C176.084,10.233 175.319,9.958 174.399,9.958C173.719,9.958 173.099,10.113 172.539,10.423C171.979,10.733 171.539,11.198 171.219,11.818C170.899,12.438 170.739,13.218 170.739,14.158L170.739,15.058C170.739,15.818 170.889,16.488 171.189,17.068C171.489,17.648 171.914,18.098 172.464,18.418C173.014,18.738 173.639,18.898 174.339,18.898C175.059,18.898 175.654,18.743 176.124,18.433C176.594,18.123 176.959,17.728 177.219,17.248L181.509,17.248C181.229,18.208 180.754,19.068 180.084,19.828C179.414,20.588 178.594,21.193 177.624,21.643C176.654,22.093 175.579,22.318 174.399,22.318Z" style="fill:white;fill-rule:nonzero;"/>
        <path d="M184.209,21.958L184.209,18.598L191.709,10.408L184.329,10.408L184.329,6.928L196.539,6.928L196.539,10.318L188.949,18.478L196.689,18.478L196.689,21.958L184.209,21.958Z" style="fill:white;fill-rule:nonzero;"/>
        <path d="M201.819,22.108C201.059,22.108 200.439,21.873 199.959,21.403C199.479,20.933 199.239,20.368 199.239,19.708C199.239,19.028 199.479,18.458 199.959,17.998C200.439,17.538 201.059,17.308 201.819,17.308C202.579,17.308 203.194,17.538 203.664,17.998C204.134,18.458 204.369,19.028 204.369,19.708C204.369,20.368 204.134,20.933 203.664,21.403C203.194,21.873 202.579,22.108 201.819,22.108Z" style="fill:white;fill-rule:nonzero;"/>
    </g>
</svg>
